# xmcd
#
# Track frame offsets:
#	150
#	26172
#	42825
#	56307
#	96937
#	116922
#	144197
#	172172
#	200440
#	220740
#	244505
#	263497
#
# Disc length: 3804 seconds
#
# Revision: 0
# Processed by: cddbd v1.5PL3 Copyright (c) Steve Scherf et al.
# Submitted via: dBpowerAMP V4.0
#
DISCID=a50eda0c
DTITLE=King Louie Band - Live at the Highside
DYEAR=2000
DGENRE=Blues
TTITLE0=180 Miles From the Blues
TTITLE1=You knew the job was dangerous
TTITLE2=I like the way you walk
TTITLE3=It hurts me too
TTITLE4=Got me way down
TTITLE5=Music in my blood
TTITLE6=Taste of her own medicine
TTITLE7=If you were mine
TTITLE8=Eight piece Box
TTITLE9=Hug you squeeze you
TTITLE10=Boom bapa boom
TTITLE11=Like an angel
EXTD=Great First blues album in the style of SRV, B.B. King, etc.
EXTT0=
EXTT1=
EXTT2=
EXTT3=
EXTT4=
EXTT5=
EXTT6=
EXTT7=
EXTT8=
EXTT9=
EXTT10=
EXTT11=
PLAYORDER=
